<svg width="634" height="767" viewBox="0 0 634 767" fill="none" xmlns="http://www.w3.org/2000/svg">
<path d="M114 2.09997C124.2 1.49997 135 0.899976 138 0.799976C141 0.699976 154.3 0.699976 167.5 0.799976C180.7 0.999976 198 1.49997 206 2.09997C214 2.69997 223.6 3.69998 227.5 4.29998C231.3 4.79998 237.4 6.39998 241 7.79998C244.6 9.09998 250.4 11.9 254 14C257.6 16.1 263.2 20.3 266.4 23.2C269.6 26.2 274.2 31.3 276.5 34.6C278.9 37.9 282.1 43.3 283.8 46.6C285.4 49.9 288.2 56.6 290 61.6C291.7 66.6 294.9 77.8 297.1 86.6C299.3 95.4 302.4 109.8 304 118.6C305.6 127.4 309.4 149.5 312.4 167.6C315.5 185.7 319.1 207.8 320.5 216.6C321.8 225.4 323 232.9 323 233.3C323 233.8 366.6 234.1 472 234.1L511.7 233.8C546.5 233.6 552.2 233.8 557 235.3C560 236.2 564.5 238.5 567 240.3C570.1 242.7 572.6 245.8 575 250.5C578.1 256.6 578.5 258.4 578.9 266.5C579.1 271.5 578.7 278.1 578 281.1C577.3 284.1 575 290.9 572.8 296.1C570.6 301.3 567.5 309.4 565.8 314.1C563.8 320 562.8 324.6 562.8 329.1C562.7 333.5 563.3 337.1 564.7 340.1C565.7 342.6 568.6 346.5 571 348.9C574.2 352 577 353.7 581 354.7C584 355.6 589.2 357.1 592.5 358.2C595.8 359.2 601.4 361.8 604.9 363.8C608.5 365.9 613.8 370.1 616.8 373.1C620.2 376.6 623.6 381.5 626.1 386.6C628.4 391.3 630.7 397.9 631.6 402.6C632.4 407 633.2 416 633.5 422.6C633.7 429.2 633.4 437.7 632.9 441.6C632.4 445.5 630.9 450.8 629.7 453.6C628.4 456.3 625.6 460.4 623.4 462.5C621.3 464.7 616.8 467.7 613.5 469.3C610 470.9 603.5 472.7 598 473.5C592.8 474.4 581.5 475.5 573 476.2C564.5 476.8 557.4 477.4 557.3 477.5C557.2 477.5 565.4 505.2 575.6 538.8C590.9 589.6 593.8 600.5 593 602.6C592.4 604 591.1 605.6 590 606.1C588.9 606.6 587.4 607.1 586.7 607.1C586.1 607.2 584.5 606.4 583.2 605.4C581.3 603.9 577.6 592.5 543.5 478.6L504 478.9C482.3 479.1 443.6 479.3 371.6 479.6L355.2 531.6L365.5 566.1C373.6 592.9 375.7 601.1 374.9 602.8C374.4 604.1 373.1 605.6 372 606.1C370.9 606.6 369.2 607.1 368.2 607.1C367.3 607.1 365.6 606.1 364.4 604.9C363.1 603.4 359.8 594.1 355.4 579.3C351.6 566.6 348.3 556.1 348 556.1C347.7 556.1 344.1 566.7 340 579.8C335.9 592.9 331.7 604.4 330.8 605.3C329.8 606.3 328 607.1 326.8 607.1C325.5 607.1 323.5 606.4 322.2 605.6C320.733 604.6 320 603.1 320 601.1C320 599.4 324.7 583.1 341.1 531.6L325.5 479.2L316.5 478.7C311.5 478.4 291.7 477.9 272.5 477.6C253.2 477.3 233.9 476.8 229.5 476.6C225.1 476.4 213.6 475.9 204 475.6C194.4 475.3 184.7 474.8 182.5 474.6C180.3 474.4 173.8 473.9 168 473.6C162.2 473.3 156.7 472.8 155.7 472.5C154.4 472.2 153.7 473.1 152.7 476.8C151.9 479.5 143.1 508.8 133 542.1C120.5 583.3 114 603.3 112.6 604.9C111.4 606.1 109.6 607.1 108.5 607.1C107.4 607.1 105.5 606.4 104.2 605.6C102.7 604.6 102 603.1 102 600.9C102 599.1 110.5 569.5 121 535.1C131.4 500.7 140 472.1 140 471.6C140 471.1 137 470 133.3 469.2C129.5 468.5 122.4 466.5 117.5 464.9C112.5 463.3 105.8 460.5 102.5 458.8C99.2001 457 93 452.2 88.6 448.1C84.3 444 78.4001 437 75.5001 432.6C72.6001 428.2 68.0001 420.1 65.2001 414.6C62.5 409.1 58.7001 400.3 56.7001 395.1C54.7001 389.9 52 381.8 50.7001 377.1C49.3 372.4 45.0001 349.2 41.0001 325.6C37.1001 302 30.5001 263 26.5001 239.1C22.4001 215.2 16.8001 181.6 14.1001 164.6C11.3001 147.6 8.20005 127.3 7.10005 119.6C6.00005 111.9 4.40005 98.6 3.50005 90.1C2.60005 81.6 1.50005 71.9 1.10005 68.6C0.600053 65.3 0.300055 58.6 0.500055 53.6C0.700055 48.6 1.50005 42.2 2.40005 39.3C3.50005 35.7 5.40005 32.7 8.70005 29.3C11.4001 26.7 16.6001 22.9 20.5001 20.9C24.3001 19 30.9001 16.2 35.0001 14.8C39.1001 13.5 47.7001 11.2 54.0001 9.79998C60.3001 8.29998 72.2001 6.29997 80.5001 5.19997C88.7001 4.09997 103.8 2.79997 114 2.09997Z" fill="#010101"/>
<path fill-rule="evenodd" clip-rule="evenodd" d="M170.5 14.5C193.6 14.6 213.2 15.2 218.5 16C223.4 16.6 230.6 18.3 234.5 19.6C238.3 20.9 244 23.5 247 25.3C250 27 255.4 31.4 259 35C262.6 38.6 267.2 44.5 269.3 48C271.3 51.6 274.4 58.1 276.1 62.5C277.8 66.9 280.9 77.3 283 85.5C285.1 93.8 287.8 105.2 289 111C290.2 116.8 294.9 144 299.5 171.5C304.1 199 308.3 225.8 309 231C309.6 236.2 310.6 242.1 311 244C311.5 245.9 313.5 257.9 315.4 270.5C317.4 283.1 320.5 304.1 322.5 317C325.6 337.8 326.3 340.7 328.3 342.3C329.5 343.3 331.3 344.1 332.3 344C333.3 344 335.2 342.9 336.5 341.5C338.7 339.3 338.9 338.4 338.4 333.8C338.1 330.9 335 310.4 331.7 288.2C328.3 266 325.7 247.7 326 247.4C326.3 247.2 350.6 247 380 247C409.4 247 439.2 247.3 459 248.5V293C459 334 459.1 337.6 460.8 339.3C461.7 340.3 463.7 341.1 465.2 341C466.8 341 468.9 340.1 470 339C471.9 337.1 472 335.7 472 247H489.2C498.7 247.1 513.9 246.8 523 246.5C532.1 246.1 542.4 246.3 546 246.8C549.6 247.3 554.3 248.6 556.4 249.6C558.9 250.8 561.2 253.1 562.9 256C565.2 259.9 565.5 261.6 565.5 269.5C565.5 278.3 565.3 278.9 558.8 295C555.2 304.1 551.7 313.3 551.1 315.5C550.6 317.7 549.8 322.4 549.4 326C549 330.1 549.2 334.5 550 338C550.7 341 552.1 345.2 553.1 347.3C554.2 349.3 554.9 351.2 554.7 351.4C554.6 351.6 544.1 352 531.5 352.4C518.8 352.7 466.9 353.4 416 354C365.1 354.5 300.8 355.2 273 355.5C245.2 355.8 211.9 356.3 199 356.6C179 357.2 174.5 357 169 355.6C165.4 354.7 160.9 352.9 159 351.6C157.1 350.3 154.2 348 152.6 346.4C151.1 344.8 148.6 341.5 147.2 339C145.8 336.5 143.5 331.4 142.2 327.5C140.9 323.6 137.9 308.8 135.5 294.5C133 280.2 125 232.3 117.5 188C110.1 143.7 101.7 93.8 98.9 77C96.2 60.2 93.3 45.2 92.7 43.7C92 42 90.5 40.6 89 40.3C87.6 40 85.6 40 84.4 40.4C83.2 40.7 81.8 42.1 81.1 43.5C80.2 45.6 82.2 59.3 93 123.3C100.2 165.7 110.8 228.4 116.5 262.5C122.6 299 127.9 327.4 129.3 331.5C130.6 335.4 133.2 341.4 135.1 345C137 348.5 140.8 353.7 143.6 356.5C146.4 359.2 150.9 362.7 153.6 364.2C156.3 365.7 161.4 367.6 165 368.6C170.8 370.1 175.9 370.2 210.5 369.6C231.9 369.3 269.1 368.7 293 368.4C321.7 368 339.4 368.2 345 368.9C349.7 369.5 356.2 370.7 359.5 371.5C362.8 372.4 368.3 374.4 371.7 376C375.2 377.7 380.4 381.2 383.2 383.9C386.1 386.6 389.7 391 391.2 393.6C392.6 396.3 394.6 401.4 395.6 405C396.9 409.9 397.4 415.4 397.4 427.5C397.5 438.6 397.1 444.7 396.1 447.5C395.4 449.7 393.6 452.8 392.1 454.3C390.7 455.9 387.9 458 386 459C384.1 460 380 461.3 377 461.9C374 462.5 369.2 463.2 366.5 463.4C363.7 463.7 344.2 464.2 323 464.5C301.8 464.8 271.2 464.6 255 464C238.8 463.5 218.5 462.8 210 462.5C201.5 462.2 188 461.5 180 460.9C172 460.4 163.2 459.7 160.5 459.4C157.7 459.2 151.9 458.5 147.5 457.9C143.1 457.4 135.2 455.8 130 454.4C124.8 453 117.1 450.5 113 448.7C106.7 446.1 104.1 444.2 96.9 437.1C91 431.1 86.7 425.6 82.8 419C79.7 413.8 75.4 405.2 73.2 400C71 394.8 68.1 387.1 66.7 383C65.4 378.9 63.3 372.1 62.2 368C61.1 363.9 59.7 357.4 59.1 353.5C58.5 349.7 55.3 330.3 52 310.5C48.8 290.7 43.6 259.9 40.5 242C37.5 224.1 32.3 193.1 29 173C25.7 152.9 21.7 127 20.1 115.5C18.5 104 16.9 91.1 16.5 87C16.2 82.9 15.5 76.4 15 72.5C14.5 68.7 14.1 61.7 14 57C14 52.3 14.5 46.7 15.1 44.5C15.7 42.3 17.2 39.4 18.3 38.1C19.5 36.8 22.1 34.8 24 33.6C25.9 32.3 30.4 30.2 34 28.8C37.6 27.4 44.5 25.3 49.5 24.1C54.4 23 62.3 21.4 67 20.6C71.7 19.8 82.2 18.4 90.5 17.5C98.7 16.6 111.3 15.5 118.5 15.1C125.6 14.6 149 14.3 170.5 14.5ZM552.5 365.6C565.2 365.8 571.8 366.4 578.5 367.9C583.4 369.1 590.6 371.5 594.5 373.4C598.3 375.3 602.6 378 606.5 382.1H585.5C573.9 382.1 556.8 382.3 547.5 382.5C538.1 382.7 517.2 383.2 501 383.5C484.8 383.8 468.8 384.3 465.5 384.6C462.2 384.9 459.3 385.3 459 385.6C458.7 385.8 458.7 386.2 459 386.4C459.3 386.7 463.1 387.1 467.5 387.4C471.9 387.7 506.1 388.2 611.5 389.2L613.3 391.3C614.3 392.5 616 396.4 617.1 400C618.1 403.6 618.9 406.6 618.7 406.7C618.6 406.8 601.2 407.1 580 407.4C558.8 407.8 529.3 408.2 514.5 408.5C499.6 408.8 483.1 409.4 477.7 409.8C472.4 410.2 468 410.7 468 411C468 411.3 471.5 411.8 475.7 412.3C480 412.7 500.6 413.2 521.5 413.5C542.4 413.8 565.3 414.2 572.5 414.5C579.6 414.8 593.3 415 620 415V433H576.2C552.2 433 518.1 433.5 500.5 434C482.9 434.6 468 435.5 467.5 436C466.9 436.5 469.8 437.1 475 437.4C479.7 437.7 489.6 438.2 497 438.5C504.4 438.7 535.1 439.3 619.8 440.5L618.4 445C617.6 447.5 615.8 450.8 614.2 452.4C612.7 454 609.7 456.1 607.5 457.1C605.3 458.1 599.4 459.5 594.5 460.4C589.5 461.2 581.4 462.2 576.5 462.5C571.5 462.9 565.5 463.3 563 463.5C560.5 463.7 542.5 464.4 523 465C503.5 465.6 468 466 401 465.5L404.2 461C406 458.5 408.2 454.2 409 451.5C410.1 447.8 410.5 441.5 410.5 427C410.5 409.4 410.3 406.8 408.1 400C406.9 395.9 404.4 389.8 402.7 386.6C400.9 383.3 396.6 377.9 386.5 368.3L389.5 367.7C391.1 367.4 410.9 367.1 433.5 367C456 366.8 488.2 366.4 505 366C521.8 365.6 543.1 365.5 552.5 365.6ZM357 479L356.5 481.7C356.2 483.3 354.4 489.2 352.5 495C350.7 500.8 348.8 505.6 348.3 505.7C347.9 505.9 345.8 500.3 343.8 493.2C341.7 486.2 340 480.2 340 479.7C340 479.3 343.8 479 357 479Z" fill="white" stroke="white"/>
<path d="M171 100.2C171.1 99.4999 172.2 97.7999 173.5 96.4999C174.8 95.0999 176.7 93.9999 177.7 93.9999C178.7 93.8999 180.5 94.6999 181.8 95.6999C183.6 97.1999 184.4 99.5999 186 109C187.1 115.3 188 121.6 188 123C188 124.4 187.2 126.3 186.2 127.3C185.3 128.3 183.1 129.1 181.5 129.1C179.9 129.1 177.8 128.3 176.9 127.3C175.9 126.2 174.4 120.7 173.1 113.5C171.9 106.9 171 100.9 171 100.2Z" fill="#010101"/>
<path d="M230.8 101C230.8 98.4999 231.4 96.9999 233 95.6999C234.2 94.7999 236.1 93.9999 237.1 93.9999C238.2 93.9999 240 94.9999 241.3 96.1999C243.2 98.0999 244 100.7 245.3 109.5C246.3 115.5 247 121.6 247 123C247 124.4 246.2 126.3 245.2 127.3C244.2 128.3 242.1 129.1 240.3 129C238 129 236.6 128.3 235.6 126.8C234.8 125.5 233.5 120 232.5 114.5C231.6 109 230.9 102.9 230.8 101Z" fill="#010101"/>
<path d="M187.7 209.7C188 209.1 189 207.7 189.8 206.7C190.6 205.8 192.2 205 193.4 205C194.6 204.9 196.5 205.7 197.8 206.7C199.8 208.2 200.5 210.6 202.3 221.3C204.3 232.9 204.4 234.3 203 236.8C201.8 238.8 200.5 239.6 198 239.8C195.6 240 194 239.6 192.9 238.3C191.9 237.2 190.4 231.6 189.1 223.7C188 216.7 187.3 210.4 187.7 209.7Z" fill="#010101"/>
<path d="M246.9 212.3C246.8 208.9 247.2 207.8 249.1 206.5C250.4 205.7 252.3 205 253.3 205C254.2 205 256 206 257.3 207.2C259.2 209.1 260 211.7 261.4 221C262.4 227.3 263.4 233.1 263.6 233.7C263.8 234.4 263.1 236.1 262 237.5C260.7 239.1 259 240 257.3 240C255.7 240 253.7 239.5 252.7 238.8C251.4 237.9 250.3 234.5 249 227C247.9 221.2 247 214.6 246.9 212.3Z" fill="#010101"/>
<path d="M5.796 748.796C5.74 748.348 5.684 747.76 5.628 747.032C5.628 746.304 5.628 745.464 5.628 744.512C5.628 742.216 5.684 739.416 5.796 736.112C5.964 732.752 6.16 729.112 6.384 725.192C6.608 721.216 6.86 717.212 7.14 713.18C7.42 709.092 7.7 705.172 7.98 701.42C8.316 697.612 8.624 694.224 8.904 691.256C8.008 691.368 7.14 691.48 6.3 691.592L4.452 677.312C10.276 676.528 16.464 675.968 23.016 675.632C29.624 675.296 36.064 675.128 42.336 675.128C47.04 675.128 51.548 675.24 55.86 675.464C60.228 675.632 64.148 675.884 67.62 676.22L66.36 690.164C63.784 689.66 60.844 689.324 57.54 689.156C54.236 688.932 50.68 688.82 46.872 688.82C42.952 688.82 38.892 688.932 34.692 689.156C30.548 689.324 26.516 689.548 22.596 689.828C22.372 692.068 22.148 694.392 21.924 696.8C21.756 699.208 21.588 701.7 21.42 704.276C24.332 703.884 27.552 703.604 31.08 703.436C34.664 703.268 38.22 703.184 41.748 703.184C45.78 703.184 49.56 703.296 53.088 703.52C56.672 703.744 59.416 704.136 61.32 704.696L60.312 718.22C56.392 717.772 52.724 717.464 49.308 717.296C45.892 717.072 42.56 716.96 39.312 716.96C32.984 716.96 26.74 717.38 20.58 718.22C20.244 724.1 19.964 729.7 19.74 735.02C19.572 740.34 19.432 744.82 19.32 748.46L5.796 748.796ZM109.521 749.552C104.145 749.552 99.6929 748.684 96.1649 746.948C92.6369 745.268 89.8089 742.944 87.6809 739.976C85.6089 736.952 84.0409 733.48 82.9769 729.56C81.9689 725.64 81.2969 721.44 80.9609 716.96C80.6809 712.48 80.5409 707.944 80.5409 703.352C80.5409 698.144 80.7089 693.076 81.0449 688.148C81.3809 683.164 81.7449 678.992 82.1369 675.632L97.5929 676.556C97.0329 680.644 96.5849 684.312 96.2489 687.56C95.9689 690.752 95.7729 693.776 95.6609 696.632C95.5489 699.488 95.4929 702.428 95.4929 705.452C95.4929 707.804 95.5209 710.352 95.5769 713.096C95.6889 715.784 95.9409 718.472 96.3329 721.16C96.7809 723.792 97.4529 726.2 98.3489 728.384C99.3009 730.512 100.617 732.248 102.297 733.592C104.033 734.88 106.245 735.524 108.933 735.524C111.845 735.524 114.197 734.88 115.989 733.592C117.837 732.248 119.265 730.484 120.273 728.3C121.281 726.06 122.009 723.596 122.457 720.908C122.905 718.164 123.157 715.392 123.213 712.592C123.325 709.736 123.381 707.048 123.381 704.528C123.381 699.768 123.241 695.148 122.961 690.668C122.681 686.188 122.317 681.428 121.869 676.388L137.325 675.212C137.773 680.588 138.109 685.516 138.333 689.996C138.557 694.42 138.669 698.508 138.669 702.26C138.669 707.356 138.473 712.256 138.081 716.96C137.745 721.664 137.017 726.004 135.897 729.98C134.777 733.9 133.153 737.344 131.025 740.312C128.897 743.224 126.069 745.492 122.541 747.116C119.069 748.74 114.729 749.552 109.521 749.552ZM159.091 748.796C158.923 744.988 158.839 740.788 158.839 736.196C158.839 731.772 158.923 727.068 159.091 722.084C159.259 717.1 159.511 712.06 159.847 706.964C160.183 701.812 160.631 696.8 161.191 691.928C160.295 692.152 159.427 692.376 158.587 692.6C157.803 692.768 157.075 692.964 156.403 693.188L152.119 679.832C165.671 676.64 176.955 675.044 185.971 675.044C204.283 675.044 213.439 682.016 213.439 695.96C213.439 702.512 211.255 707.72 206.887 711.584C202.519 715.392 196.107 717.8 187.651 718.808C192.747 723.12 197.871 726.676 203.023 729.476C208.231 732.22 213.495 734.544 218.815 736.448L209.575 748.796C206.607 747.732 203.499 746.248 200.251 744.344C197.003 742.44 193.783 740.34 190.591 738.044C187.399 735.748 184.347 733.424 181.435 731.072C178.579 728.72 176.031 726.536 173.791 724.52C173.735 728.384 173.679 732.304 173.623 736.28C173.623 740.2 173.623 744.26 173.623 748.46L173.119 748.964C170.991 748.964 168.695 748.964 166.231 748.964C163.823 749.02 161.639 749.132 159.679 749.3L159.091 748.796ZM185.215 688.4C183.647 688.4 182.023 688.484 180.343 688.652C178.663 688.764 176.983 688.932 175.303 689.156C175.079 692.292 174.883 695.4 174.715 698.48C174.547 701.504 174.407 704.528 174.295 707.552C176.759 707.496 179.419 707.356 182.275 707.132C185.187 706.852 187.931 706.348 190.507 705.62C193.083 704.836 195.183 703.716 196.807 702.26C198.487 700.804 199.327 698.872 199.327 696.464C199.327 693.664 198.179 691.62 195.883 690.332C193.587 689.044 190.031 688.4 185.215 688.4ZM231.929 749.132C231.929 740.396 232.041 732.528 232.265 725.528C232.545 718.472 232.881 712.06 233.273 706.292C233.721 700.468 234.197 695.064 234.701 690.08C235.261 685.04 235.793 680.224 236.297 675.632L250.745 676.22C250.521 677.956 250.269 679.832 249.989 681.848C251.893 684.424 253.965 687.364 256.205 690.668C258.501 693.972 260.825 697.472 263.177 701.168C265.585 704.808 267.937 708.476 270.233 712.172C272.529 715.812 274.713 719.312 276.785 722.672C278.857 725.976 280.677 728.944 282.245 731.576C282.637 727.712 282.833 722.28 282.833 715.28C282.833 711.696 282.777 708 282.665 704.192C282.553 700.384 282.413 696.744 282.245 693.272C282.077 689.744 281.853 686.608 281.573 683.864C281.293 681.064 280.985 678.88 280.649 677.312L296.441 675.38C296.553 678.124 296.609 681.736 296.609 686.216C296.665 690.64 296.693 695.344 296.693 700.328C296.693 704.752 296.665 709.204 296.609 713.684C296.553 718.108 296.441 722.196 296.273 725.948C296.105 729.7 295.853 732.808 295.517 735.272C294.901 740.088 293.669 743.644 291.821 745.94C289.973 748.236 287.369 749.384 284.009 749.384C281.265 749.384 278.745 748.432 276.449 746.528C274.209 744.624 271.773 741.488 269.141 737.12C267.349 734.096 265.249 730.624 262.841 726.704C260.489 722.728 258.025 718.668 255.449 714.524C252.929 710.38 250.493 706.432 248.141 702.68C247.693 709.232 247.357 715.784 247.133 722.336C246.909 728.832 246.797 734.712 246.797 739.976C246.797 741.656 246.797 743.224 246.797 744.68C246.797 746.192 246.825 747.592 246.881 748.88L231.929 749.132ZM312.825 748.796C312.377 745.884 311.985 742.356 311.649 738.212C311.369 734.068 311.145 729.56 310.977 724.688C310.865 719.816 310.809 714.86 310.809 709.82C310.809 703.492 310.921 697.332 311.145 691.34C311.369 685.348 311.705 680.084 312.153 675.548L327.609 675.8C326.993 679.776 326.517 684.452 326.181 689.828C325.901 695.204 325.761 701.308 325.761 708.14C325.761 715.084 325.873 722.056 326.097 729.056C326.377 736.056 326.685 742.468 327.021 748.292L312.825 748.796Z" fill="#0A58CA"/>
<path d="M371.376 749.72C366.672 749.72 362.304 749.02 358.272 747.62C354.24 746.22 350.6 744.372 347.352 742.076C344.16 739.724 341.36 737.204 338.952 734.516L347.352 721.16C348.08 723.064 349.284 724.884 350.964 726.62C352.7 728.356 354.716 729.896 357.012 731.24C359.308 732.584 361.716 733.648 364.236 734.432C366.812 735.216 369.332 735.608 371.796 735.608C375.492 735.608 378.432 735.02 380.616 733.844C382.8 732.612 383.892 730.988 383.892 728.972C383.892 727.404 383.388 726.116 382.38 725.108C381.428 724.044 380.308 723.204 379.02 722.588C377.788 721.916 376.724 721.328 375.828 720.824C375.156 720.488 373.924 719.984 372.132 719.312C370.396 718.584 368.436 717.8 366.252 716.96C364.068 716.12 361.996 715.336 360.036 714.608C358.076 713.824 356.536 713.18 355.416 712.676C347.072 708.924 342.9 703.128 342.9 695.288C342.9 692.768 343.376 690.304 344.328 687.896C345.336 685.432 346.848 683.192 348.864 681.176C350.88 679.16 353.456 677.564 356.592 676.388C359.728 675.212 363.48 674.624 367.848 674.624C372.608 674.624 376.836 675.156 380.532 676.22C384.228 677.228 387.476 678.516 390.276 680.084C393.132 681.652 395.568 683.304 397.584 685.04L389.856 697.976C383.64 691.816 376.612 688.736 368.772 688.736C365.468 688.736 362.948 689.1 361.212 689.828C359.532 690.5 358.384 691.284 357.768 692.18C357.208 693.02 356.928 693.72 356.928 694.28C356.928 695.232 357.264 696.184 357.936 697.136C358.664 698.088 360.26 699.096 362.724 700.16C363.732 700.608 365.076 701.168 366.756 701.84C368.492 702.456 370.396 703.156 372.468 703.94C374.596 704.724 376.668 705.564 378.684 706.46C380.756 707.3 382.632 708.168 384.312 709.064C386.328 710.184 388.4 711.556 390.528 713.18C392.656 714.804 394.448 716.82 395.904 719.228C397.416 721.58 398.172 724.464 398.172 727.88C398.172 729.952 397.78 732.248 396.996 734.768C396.212 737.232 394.84 739.612 392.88 741.908C390.92 744.204 388.204 746.08 384.732 747.536C381.26 748.992 376.808 749.72 371.376 749.72ZM413.381 749.048C412.877 745.912 412.513 742.076 412.289 737.54C412.065 733.004 411.953 728.104 411.953 722.84C411.953 717.408 412.037 711.836 412.205 706.124C412.429 700.412 412.681 694.924 412.961 689.66C413.297 684.34 413.661 679.636 414.053 675.548L428.669 675.8C428.053 679.72 427.549 684.088 427.157 688.904C426.821 693.664 426.541 698.62 426.317 703.772C430.293 703.212 434.605 702.792 439.253 702.512C443.901 702.232 448.381 702.092 452.693 702.092C454.765 702.092 456.753 702.148 458.657 702.26C458.601 698.06 458.517 694.14 458.405 690.5C458.293 686.86 458.153 683.78 457.985 681.26C457.817 678.74 457.621 677.004 457.397 676.052L471.845 675.128C472.349 679.832 472.741 685.46 473.021 692.012C473.357 698.564 473.525 705.508 473.525 712.844C473.525 718.78 473.413 724.828 473.189 730.988C472.965 737.092 472.573 742.972 472.013 748.628H457.985C458.209 746.836 458.377 744.4 458.489 741.32C458.601 738.184 458.685 734.656 458.741 730.736C458.797 726.76 458.825 722.616 458.825 718.304C458.825 717.52 458.825 716.708 458.825 715.868C457.761 715.868 456.669 715.868 455.549 715.868C454.485 715.812 453.393 715.784 452.273 715.784C447.849 715.784 443.369 715.952 438.833 716.288C434.353 716.568 430.069 716.988 425.981 717.548C425.981 719.34 425.981 721.132 425.981 722.924C425.981 727.852 426.009 732.472 426.065 736.784C426.177 741.096 426.345 745.016 426.569 748.544L413.381 749.048ZM523.169 748.628C517.905 748.628 513.117 747.648 508.805 745.688C504.493 743.784 500.769 741.124 497.633 737.708C494.497 734.292 492.089 730.4 490.409 726.032C488.729 721.664 487.889 717.044 487.889 712.172C487.889 707.692 488.561 703.296 489.905 698.984C491.249 694.616 493.293 690.668 496.037 687.14C498.781 683.556 502.253 680.7 506.453 678.572C510.709 676.444 515.721 675.38 521.489 675.38C527.481 675.38 532.689 676.416 537.113 678.488C541.537 680.504 545.177 683.22 548.033 686.636C550.889 690.052 553.017 693.916 554.417 698.228C555.817 702.54 556.517 706.964 556.517 711.5C556.517 716.932 555.705 721.916 554.081 726.452C552.457 730.988 550.161 734.936 547.193 738.296C544.225 741.6 540.697 744.148 536.609 745.94C532.521 747.732 528.041 748.628 523.169 748.628ZM523.169 734.6C526.529 734.6 529.637 733.788 532.493 732.164C535.349 730.484 537.645 727.88 539.381 724.352C541.117 720.824 541.985 716.232 541.985 710.576C541.985 705.704 541.033 701.7 539.129 698.564C537.225 695.428 534.761 693.104 531.737 691.592C528.713 690.08 525.549 689.324 522.245 689.324C518.493 689.324 515.329 689.996 512.753 691.34C510.177 692.684 508.105 694.504 506.537 696.8C504.969 699.04 503.849 701.56 503.177 704.36C502.505 707.16 502.169 710.044 502.169 713.012C502.169 715.924 502.729 718.696 503.849 721.328C504.969 723.904 506.481 726.2 508.385 728.216C510.345 730.176 512.585 731.744 515.105 732.92C517.625 734.04 520.313 734.6 523.169 734.6ZM575.752 748.628C575.696 746.836 575.668 745.016 575.668 743.168C575.668 741.376 575.668 739.584 575.668 737.792C575.668 729.56 575.836 721.58 576.172 713.852C576.508 706.068 576.9 698.648 577.348 691.592C575.108 692.152 573.232 692.684 571.72 693.188L568.444 679.748C571.188 678.908 574.072 678.18 577.096 677.564C580.176 676.892 583.172 676.36 586.084 675.968C589.052 675.52 591.768 675.212 594.232 675.044C596.752 674.82 598.824 674.708 600.448 674.708C602.184 674.708 604.312 674.848 606.832 675.128C609.408 675.408 612.04 675.996 614.728 676.892C617.472 677.732 620.02 679.02 622.372 680.756C624.724 682.492 626.628 684.844 628.084 687.812C629.596 690.724 630.352 694.392 630.352 698.816C630.352 703.408 629.344 707.244 627.328 710.324C625.312 713.348 622.652 715.784 619.348 717.632C616.044 719.424 612.404 720.712 608.428 721.496C604.452 722.28 600.532 722.672 596.668 722.672C594.204 722.672 591.852 722.56 589.612 722.336C589.556 725.024 589.528 727.684 589.528 730.316C589.528 733.9 589.556 737.232 589.612 740.312C589.668 743.336 589.78 745.996 589.948 748.292L575.752 748.628ZM600.028 688.484C598.572 688.484 597.06 688.54 595.492 688.652C593.98 688.764 592.468 688.904 590.956 689.072C590.676 692.04 590.452 695.26 590.284 698.732C590.116 702.204 589.976 705.76 589.864 709.4C591.936 709.568 594.092 709.652 596.332 709.652C609.772 709.652 616.492 705.676 616.492 697.724C616.492 694.588 615.148 692.264 612.46 690.752C609.772 689.24 605.628 688.484 600.028 688.484Z" fill="#EB5B00"/>
</svg>
